<svg xmlns="http://www.w3.org/2000/svg" width="405.246" height="64.728" viewBox="0 0 405.246 64.728"><path d="M31.842,5.568A4.8,4.8,0,0,1,30.8,5.452Q28.014,4.93,28.014.522q0-7.134,7.192-24.3a69.665,69.665,0,0,0,4.118-12.644,18.72,18.72,0,0,0,.522-3.8,16.668,16.668,0,0,0-.116-2.233,4.425,4.425,0,0,0-1.914-3.538,13.449,13.449,0,0,0-6.5-1.566A19.579,19.579,0,0,0,23.374-45.7a43.412,43.412,0,0,0-7.859,4.524,35.784,35.784,0,0,0-6.7,6.351,26.683,26.683,0,0,0-4.495,7.714,21.381,21.381,0,0,0-1.479,7.279,13.618,13.618,0,0,0,.232,2.552,10.116,10.116,0,0,0,3.48,5.974,9.577,9.577,0,0,0,6.032,1.972q4.872,0,9.135-4.292t4.263-9.106a5.561,5.561,0,0,0-1.044-3.77,2.943,2.943,0,0,0-2.146-1.16,7.893,7.893,0,0,0-2.2.319q-1.1.319-1.1-.058t1.334-.986A6.63,6.63,0,0,1,23.606-29a4.492,4.492,0,0,1,2.668.87,6.24,6.24,0,0,1,2.262,5.278,11.768,11.768,0,0,1-2.7,7.1A20.857,20.857,0,0,1,19.2-10.005,16.062,16.062,0,0,1,11.4-7.83a10.843,10.843,0,0,1-7.163-2.813A13.655,13.655,0,0,1-.174-18.212a14.483,14.483,0,0,1-.29-2.958,20.7,20.7,0,0,1,1.8-7.946,27.325,27.325,0,0,1,5.191-7.975,35.734,35.734,0,0,1,7.337-6.148,45.189,45.189,0,0,1,8.352-4.089,23.319,23.319,0,0,1,8.294-1.682,19.7,19.7,0,0,1,7.076,1.218q5.626,2.436,5.626,10.324,0,5.8-4.176,14.384A91.167,91.167,0,0,0,34.394-11.6Q31.378-2.494,31.378,1.044q0,2.668,1.8,2.668,3.6,0,12.586-9.338A51.777,51.777,0,0,0,55.68-20.01,21.945,21.945,0,0,0,58-29.174a9.587,9.587,0,0,0-.348-3.1q-.348-.9-.464-1.16a1.067,1.067,0,0,0-.464-.464,1.277,1.277,0,0,0-.464-.2,15.236,15.236,0,0,0-1.682-.377q-.87-.145-1.015-.783t.609-.754l1.1.116a8.376,8.376,0,0,1,4.64,3.77,7.191,7.191,0,0,1,1.1,4.031,17.365,17.365,0,0,1-1.1,5.539A50.7,50.7,0,0,1,51.678-8.613,52.039,52.039,0,0,1,40.687,1.914Q35.264,5.568,31.842,5.568Zm30.566-14.5A11.478,11.478,0,0,0,61.6-4.524a4.174,4.174,0,0,0,.725,2.581,2.431,2.431,0,0,0,2.059.957q5.278,0,9.57-9.918.406-.928.986-.812a.274.274,0,0,1,.232.29,24.358,24.358,0,0,1-1.305,3.045,24.474,24.474,0,0,1-2.639,4.553A8.784,8.784,0,0,1,63.916.232a5.586,5.586,0,0,1-3.944-1.508,5.345,5.345,0,0,1-1.624-4.118,14.165,14.165,0,0,1,1.247-5.539,21.207,21.207,0,0,1,3.393-5.452,13.024,13.024,0,0,1,4.93-3.683,6.4,6.4,0,0,1,2.552-.58,4,4,0,0,1,2.262.7,2.324,2.324,0,0,1,.986,1.8q0,3.48-4.176,6.67a12.432,12.432,0,0,1-3.6,1.769A12.174,12.174,0,0,1,62.408-8.932Zm9.744-9.28q0-1.16-.928-1.16-1.624,0-4.93,4a29.825,29.825,0,0,0-3.48,5.452,9.164,9.164,0,0,0,2.871-.7,11.039,11.039,0,0,0,3.277-1.856Q72.152-15.2,72.152-18.212Zm9.8-5.046q0,2.61-3.306,4.93,1.16.058,3.1.058t4.9-.29a2.155,2.155,0,0,1,.116.928,5.931,5.931,0,0,1-.7,2.233q-.7,1.479-1.247,2.552t-1.044,2.03q-.493.957-1.1,2.349T81.664-5.916q-1.45,4.408.464,4.408,2.436,0,7.192-9.686.406-.754.667-.58a.511.511,0,0,1,.261.435,8.114,8.114,0,0,1-.754,1.8Q88.74-8,87.87-6.38a21.754,21.754,0,0,1-2.726,3.77Q82.94.058,80.91.058q-2.262,0-3.132-2.726A5.279,5.279,0,0,1,77.6-4.234a8.309,8.309,0,0,1,.667-2.784,30.539,30.539,0,0,1,2.117-4.234q1.45-2.494,1.624-2.929a2.259,2.259,0,0,0,.174-.841q0-1.8-4.64-1.914l-.7,1.856Q73.2-5.51,69.832-2.262q-.58.522-.58-.348a.935.935,0,0,1,.116-.406,44.414,44.414,0,0,0,5.626-10.15A55.137,55.137,0,0,0,78.3-24.3q.348-1.8,1.624-1.8t1.856,1.624A3.856,3.856,0,0,1,81.954-23.258Zm34.684,4.234q-7.076,12.586-7.076,16.24,0,1.624,1.1,1.624,1.392,0,3.19-2.088a33.54,33.54,0,0,0,4.756-7.946q.348-.812.7-.638a.523.523,0,0,1,.348.464,5.087,5.087,0,0,1-.58,1.45l-.928,1.856q-.348.7-1.537,2.668a19.577,19.577,0,0,1-2.03,2.9,12.3,12.3,0,0,1-2.146,1.827,5.091,5.091,0,0,1-2.958.9,3.388,3.388,0,0,1-2.813-1.624,3.567,3.567,0,0,1-.522-2.059,10.913,10.913,0,0,1,.58-3.161,31.307,31.307,0,0,1,3.19-6.032,3.522,3.522,0,0,0,.638-1.653q0-.609-.957-.609t-3.451,2.32a39.425,39.425,0,0,0-5.249,6.264A19.68,19.68,0,0,0,97.614,0a1.553,1.553,0,0,1-1.45-.812A2.936,2.936,0,0,1,95.7-2.2q0-2.378,3.19-9.048a10.952,10.952,0,0,0,1.1-2.987q.058-.783-.2-.812a1.423,1.423,0,0,0-.725.2,16.3,16.3,0,0,0-3.19,2.552q-4.06,3.712-8,11.31a1.327,1.327,0,0,1-.725.783,7.57,7.57,0,0,1-1.711.2,4.339,4.339,0,0,0-1.682.29q1.044-2.03,3.654-7.6,4.7-9.976,6.264-11.484a2.586,2.586,0,0,1,1.914-.7,9.73,9.73,0,0,1,1.189.174,3.668,3.668,0,0,0,1.421.058q-2.146,1.16-7.018,10.9a42.027,42.027,0,0,1,3.915-4.408Q96.28-13.8,96.86-14.326t.9-.812l.928-.841q.609-.551.928-.812t.9-.725a4.858,4.858,0,0,1,.9-.609,7.858,7.858,0,0,0,.87-.493,1.827,1.827,0,0,1,.812-.348,2.62,2.62,0,0,0,.725-.145q.464-.145.638.087a1.545,1.545,0,0,1,1.16,1.45q0,.87-1.972,4.466t-2.552,4.756a42.657,42.657,0,0,1,4.872-5.249,30.048,30.048,0,0,1,5.481-3.8,11.4,11.4,0,0,1,4.611-1.74A1.291,1.291,0,0,1,116.638-19.024ZM129.166-20.3q4.234,0,4.234,5.336a12.582,12.582,0,0,1-1.276,5.22A20.643,20.643,0,0,1,127.252-2.9a2.8,2.8,0,0,0,2.726,1.45,3.979,3.979,0,0,0,2.958-1.566,15.9,15.9,0,0,0,2.494-3.161q.754-1.363,1.1-2t.9-1.827q.551-1.189.667-1.45a.411.411,0,0,1,.406-.261q.58-.058.58.406a.935.935,0,0,1-.116.406l-.348.812q-.348.812-.522,1.16t-.609,1.247q-.435.9-.754,1.421t-.87,1.392a13.533,13.533,0,0,1-.986,1.392q-.435.522-1.073,1.16a6.489,6.489,0,0,1-1.218.986,5.345,5.345,0,0,1-2.726.87,4.7,4.7,0,0,1-3.712-1.508A8.513,8.513,0,0,1,121.22,0q-4.234,0-4.234-5.336a12.582,12.582,0,0,1,1.276-5.22,19.454,19.454,0,0,1,4.9-6.9Q126.324-20.3,129.166-20.3Zm.638,1.8q-1.566,0-3.712,2.088a19.188,19.188,0,0,0-3.828,5.684,16.653,16.653,0,0,0-2.03,6.844q0,2.668,2.03,2.668a5.227,5.227,0,0,0,3.248-1.566,4.889,4.889,0,0,1-.928-2.842q.116-2.494,2.03-2.494a1.642,1.642,0,0,1,1.247.522,1.477,1.477,0,0,1,.493.957,3.7,3.7,0,0,1-.116.9A32.717,32.717,0,0,0,130.5-9.86a13.117,13.117,0,0,0,1.45-5.8Q131.95-18.5,129.8-18.5Zm25.752-.522Q148.422-6.5,148.422-2.668q0,1.508,1.1,1.508,2.958,0,7.946-10.034.348-.812.7-.638a.523.523,0,0,1,.348.464,1.468,1.468,0,0,1-.232.7,40.972,40.972,0,0,1-5.191,8.555Q150.974.232,148.857.232a3.645,3.645,0,0,1-3.219-1.624,3.3,3.3,0,0,1-.58-2.059,10.912,10.912,0,0,1,.58-3.161,31.305,31.305,0,0,1,3.19-6.032,3.522,3.522,0,0,0,.638-1.653q0-.609-.986-.609t-3.77,2.61q-4.176,3.828-8.062,11.484a1.536,1.536,0,0,1-.783.725,7.57,7.57,0,0,1-1.711.2,4.339,4.339,0,0,0-1.682.29q.928-1.856,3.654-7.6,4.872-10.15,6.38-11.6a2.586,2.586,0,0,1,1.914-.7,9.731,9.731,0,0,1,1.189.174,3.668,3.668,0,0,0,1.421.058q-2.146,1.16-7.018,10.9a47.067,47.067,0,0,1,4.959-5.365,28.414,28.414,0,0,1,5.365-3.712,11.348,11.348,0,0,1,4.582-1.711A1.7,1.7,0,0,1,155.556-19.024ZM156.02-4.64q0-4.814,4.64-16.124h-3.016a.372.372,0,0,1-.377-.319.917.917,0,0,1,.058-.638.466.466,0,0,1,.435-.319h3.48q2.088-4.582,3.886-7.656a13.541,13.541,0,0,1,3.306-4.147,4.747,4.747,0,0,1,2.175-1.073,2.815,2.815,0,0,1,.957.116,2.626,2.626,0,0,1,1.334,2.639,11.849,11.849,0,0,1-1.334,4.843q-1.334,2.842-2.61,5.278h2.784a.372.372,0,0,1,.377.319.917.917,0,0,1-.058.638.466.466,0,0,1-.435.319h-3.364a42.125,42.125,0,0,1-7.714,9.57L159.21-5.278a6.564,6.564,0,0,0-.174,1.479,3.106,3.106,0,0,0,.406,1.479,1.351,1.351,0,0,0,1.276.754,4.534,4.534,0,0,0,2.2-.7q2.784-2.088,6.148-8.758a1.092,1.092,0,0,1,.551-.638q.319-.116.377.145a1.633,1.633,0,0,1-.174.841,53.986,53.986,0,0,1-3.016,5.684Q163.676.058,160.138.058a3.746,3.746,0,0,1-2.958-1.334A4.942,4.942,0,0,1,156.02-4.64Zm11.658-17.4q3.828-6.844,3.828-9.512,0-1.16-.406-1.16-.638,0-1.943,1.856a65.473,65.473,0,0,0-4.379,8.816Zm-.754,1.276H164.2q-.7,1.624-3.132,7.714A44.329,44.329,0,0,0,166.924-20.764Zm38.86,0q0-4-3.77-4a11.427,11.427,0,0,0-1.276.087.986.986,0,0,1-1.044-.377q-.464-.638,1.508-.87a8.453,8.453,0,0,1,1.392-.116,4.534,4.534,0,0,1,4.582,2.9,7.93,7.93,0,0,1,.522,3.1,10.147,10.147,0,0,1-1.624,4.727A17.489,17.489,0,0,1,197.142-7.6a10.571,10.571,0,0,1-4.205.87,10.45,10.45,0,0,1-4.495-1.1,11.335,11.335,0,0,1-5.974-6.786,14.552,14.552,0,0,1-.638-4.669A21.685,21.685,0,0,1,183.4-26.39a34.036,34.036,0,0,1,11.832-14.326q8.816-6.38,16.472-6.38,6.5,0,8.7,5.22a13.6,13.6,0,0,1,.986,5.452,20.5,20.5,0,0,1-.116,2.146,49.664,49.664,0,0,1-3.016,11.542,5.513,5.513,0,0,0-.406,1.479q0,.377.174.377.29.058.986-1.218a88.058,88.058,0,0,1,9.454-14.036,13.511,13.511,0,0,1,4.06-3.306,10.146,10.146,0,0,1,4.669-1.392,3.913,3.913,0,0,1,3.248,1.508,6.282,6.282,0,0,1,1.189,4q0,5.858-4.582,19.546-.928,2.726-1.16,3.48a186.313,186.313,0,0,1,11.8-16.211q7.105-8.845,12.615-10.469a6.268,6.268,0,0,1,1.74-.29,2.731,2.731,0,0,1,2.842,2.2,5.925,5.925,0,0,1,.232,1.74q0,2.958-2.32,7.6a107.365,107.365,0,0,0-6.5,15.138q-2.378,7.424-2.378,10.15a16.524,16.524,0,0,0,.522,4.524q1.044,3.6,5.51,3.6.232,0,.957-.029t.812.261q.087.29-.406.522a2.3,2.3,0,0,1-.986.232,4.174,4.174,0,0,1-.783-.058q-9.164-.928-9.164-9.4a23.346,23.346,0,0,1,1.247-6.989q1.247-3.915,2.117-6,1.392-3.364,5.858-13.166a15.747,15.747,0,0,0,1.566-5.568q0-1.914-1.624-1.914-2.262,0-7.018,4.64a77.008,77.008,0,0,0-5.278,5.945,146.22,146.22,0,0,0-8.41,12.3A101.634,101.634,0,0,0,231.768-1.16q-1.334,3.132-3.538,3.132-1.566,0-1.856-1.1a.786.786,0,0,1,0-.725q.174-.261,1.1-1.943t1.914-3.538q.986-1.856,2.349-5.046t2.523-6.5a80.278,80.278,0,0,0,3.77-16.82,21.7,21.7,0,0,0,.116-2.465,3.38,3.38,0,0,0-.783-2.349,2.239,2.239,0,0,0-1.653-.87q-2.842,0-6.264,4.292a110.123,110.123,0,0,0-8.062,11.281q-3.422,5.539-5.249,9.309T211.9-5.423Q209.5-.116,209.351.232t-.406.87a10.325,10.325,0,0,0-.435.986q-.754,1.682-3.248,1.682-1.45,0-1.566-.928a1.7,1.7,0,0,1,.058-.406q3.828-5.916,8.468-17.922,5.916-15.2,5.916-22.156,0-8.294-6.844-8.294-4.408,0-11.107,4.234A36.906,36.906,0,0,0,189.08-30.856a23.324,23.324,0,0,0-2.61,5.046,23.675,23.675,0,0,0-1.508,7.076q0,7.482,4.988,9.86a7.834,7.834,0,0,0,3.538.87q6.264,0,10.266-6.786A12.166,12.166,0,0,0,205.784-20.764ZM263.726-8.932a11.477,11.477,0,0,0-.812,4.408,4.174,4.174,0,0,0,.725,2.581,2.431,2.431,0,0,0,2.059.957q5.278,0,9.57-9.918.406-.928.986-.812a.274.274,0,0,1,.232.29,24.357,24.357,0,0,1-1.305,3.045,24.475,24.475,0,0,1-2.639,4.553,8.784,8.784,0,0,1-7.308,4.06,5.586,5.586,0,0,1-3.944-1.508,5.345,5.345,0,0,1-1.624-4.118,14.165,14.165,0,0,1,1.247-5.539,21.207,21.207,0,0,1,3.393-5.452,13.025,13.025,0,0,1,4.93-3.683,6.4,6.4,0,0,1,2.552-.58,4,4,0,0,1,2.262.7,2.324,2.324,0,0,1,.986,1.8q0,3.48-4.176,6.67a12.432,12.432,0,0,1-3.6,1.769A12.174,12.174,0,0,1,263.726-8.932Zm9.744-9.28q0-1.16-.928-1.16-1.624,0-4.93,4a29.825,29.825,0,0,0-3.48,5.452,9.164,9.164,0,0,0,2.871-.7,11.039,11.039,0,0,0,3.277-1.856Q273.47-15.2,273.47-18.212ZM287.68-3.364q0,1.856,1.508,1.856,2.726,0,7.25-9.106.174-.348.319-.7a.785.785,0,0,1,.464-.464q.319-.116.435.145a1.183,1.183,0,0,1-.116.841Q292.9,0,288.144,0a2.862,2.862,0,0,1-2.494-1.392,4.95,4.95,0,0,1-.928-2.755,10.388,10.388,0,0,1,.29-2.523q-3.364,5.568-5.8,6.322a3.528,3.528,0,0,1-1.363.29,4.938,4.938,0,0,1-1.305-.174Q273.7-.986,273.7-4.756a14.744,14.744,0,0,1,1.3-5.655,23.416,23.416,0,0,1,3.683-5.945,11.646,11.646,0,0,1,5.742-3.828,9.1,9.1,0,0,1,2.871-.406,8.183,8.183,0,0,1,3.683,1.044q3.944-7.424,6.728-13.746a5.881,5.881,0,0,1,1.6-2.465,2.575,2.575,0,0,1,1.45-.551h.812q.145,0,1.1.145a6.079,6.079,0,0,0,1.479.087q-1.334,1.218-7.076,11.832-7.308,13.572-8.816,18.1A8.922,8.922,0,0,0,287.68-3.364Zm2.842-15.254a2.862,2.862,0,0,0-2.117-.754q-1.363,0-3.8,2.03a26.823,26.823,0,0,0-6.438,8,11.636,11.636,0,0,0-1.682,5.162,3.709,3.709,0,0,0,.377,1.682,1.248,1.248,0,0,0,1.189.754q1.972,0,4.872-4.06A127.274,127.274,0,0,0,290.522-18.618ZM360.7-39.382a5.307,5.307,0,0,0-1.856-3.828,10.219,10.219,0,0,0-7.366-2.552,27.088,27.088,0,0,0-9.106,1.8,14.337,14.337,0,0,0-4.524,2.552q-2.958,2.552-2.958,5.1,0,3.422,4.35,6.148,1.624.986,6.525,3.219a70.971,70.971,0,0,1,7.163,3.625,12.78,12.78,0,0,1,4.727,4.466,9.26,9.26,0,0,1,1.3,4.408,11.018,11.018,0,0,1-1.914,5.916,28.6,28.6,0,0,1-9.86,9.28q-7.482,4.524-18.038,4.524Q319,5.278,313.026.116a12.713,12.713,0,0,1-4.64-10.15,17.15,17.15,0,0,1,2.871-8.7,16.609,16.609,0,0,1,7.047-6.728,2.273,2.273,0,0,1,1.305-.232q.435.116-.725,1.1a17.569,17.569,0,0,0-4,4.35,20.243,20.243,0,0,0-3.248,11.078,11.235,11.235,0,0,0,2.2,6.9q3.944,5.278,13.688,5.974,1.1.116,3.277.116a30.671,30.671,0,0,0,5.916-.783A28.3,28.3,0,0,0,343.94.464q7.482-3.944,9.686-10.208a10.215,10.215,0,0,0,.7-3.6,8.955,8.955,0,0,0-3.538-6.96,39.772,39.772,0,0,0-7.8-4.031,59.391,59.391,0,0,1-7.917-3.857Q330.6-31.2,330.6-35.322q0-3.6,4-7.018,5.742-4.872,16.24-4.872a18.748,18.748,0,0,1,8.033,1.479,6.455,6.455,0,0,1,3.8,4.437,5.9,5.9,0,0,1,.116,1.16,5.28,5.28,0,0,1-2.088,4.06,11.028,11.028,0,0,1-3.886,1.856q-1.044.29-1.16-.232-.116-.754,1.45-.928a3.64,3.64,0,0,0,3.422-2.784A4.629,4.629,0,0,0,360.7-39.382Zm20.706,23.606a14.273,14.273,0,0,1-1.334,5.626,24.778,24.778,0,0,1-3.683,5.916,11.857,11.857,0,0,1-5.713,3.886A11.166,11.166,0,0,1,367.749,0a7.844,7.844,0,0,1-3.625-1.044L358.614,12.7a6.834,6.834,0,0,1-1.624,2.436,2.407,2.407,0,0,1-1.45.58H354.7a10.192,10.192,0,0,1-1.044-.174,4.709,4.709,0,0,0-1.363-.116q1.276-1.218,6.467-11.571t5.887-13.949q-.638.928-1.218.986-.348,0,0-.667t1.16-2.581a12.023,12.023,0,0,0,1.044-4.611q0-2.117-.812-2.465a34.238,34.238,0,0,1,4.06-.551.709.709,0,0,1,.725.493,3.493,3.493,0,0,1,.145,1.044,22.8,22.8,0,0,1-1.624,7.888l1.16-1.856a30.382,30.382,0,0,1,3.045-4.35q.957-.986,2.059-2.03a4.825,4.825,0,0,1,3.248-1.624,3.154,3.154,0,0,1,.87.116Q381.408-19.546,381.408-15.776Zm-2.784-.58a3.892,3.892,0,0,0-.377-1.711,1.246,1.246,0,0,0-1.189-.783q-2.03,0-4.727,3.77a135.612,135.612,0,0,0-7.743,13.166,2.822,2.822,0,0,0,2.088.754q1.334,0,3.77-2.03a27.358,27.358,0,0,0,6.5-8.062A11.591,11.591,0,0,0,378.624-16.356Zm22.5.638a22.191,22.191,0,0,0-2.958,4.727,24.353,24.353,0,0,0-2.291,5.51,15.347,15.347,0,0,0-.377,2.958q0,1.131.87,1.131,1.1,0,2.726-2.03a41.255,41.255,0,0,0,4.7-7.714q.232-.522.522-.58.464-.174.464.348a1.826,1.826,0,0,1-.174.7Q399.272.116,395.618.116a3.134,3.134,0,0,1-2.726-1.624,4.483,4.483,0,0,1-.522-2.32,13.619,13.619,0,0,1,.58-3.538q-4.64,7.482-8,7.482a2.691,2.691,0,0,1-1.682-.58q-1.74-1.218-1.74-4.176,0-5.684,4.93-11.542a12.8,12.8,0,0,1,6.844-4.234,8.213,8.213,0,0,1,2.088-.29,6.156,6.156,0,0,1,4.524,1.856,1.134,1.134,0,0,1,.348,1.218.8.8,0,0,1-.986.464,2.673,2.673,0,0,0-2.784-2.088q-2.494,0-6.148,3.944a31.727,31.727,0,0,0-3.886,5.452q-2.262,3.77-2.262,6.032t1.45,2.262q3.48,0,9.106-10.672a13.347,13.347,0,0,1,1.856-2.929,2.543,2.543,0,0,1,1.914-.783,9.73,9.73,0,0,1,1.189.174A3.668,3.668,0,0,0,401.128-15.718Z" transform="translate(0.464 49.01)" fill="#fff"/></svg>